<svg width="270" height="45" viewBox="0 0 270 45" fill="none" xmlns="http://www.w3.org/2000/svg">
<path d="M0.835227 1.09091H6.05114V26.7273H6.375L24.1364 1.09091H29.0114V36H23.7443V10.3977H23.4205L5.69318 36H0.835227V1.09091ZM49.4616 20.8977V25.3295H35.5014V20.8977H49.4616ZM39.6435 9.81818V36H34.5469V9.81818H39.6435ZM57.4389 36.5284C55.0071 36.5284 52.8821 35.9602 51.0639 34.8239C49.2457 33.6875 47.8366 32.108 46.8366 30.0852C45.8366 28.0511 45.3366 25.6932 45.3366 23.0114C45.3366 20.3068 45.8366 17.9432 46.8366 15.9205C47.8366 13.8864 49.2457 12.3068 51.0639 11.1818C52.8821 10.0455 55.0071 9.47727 57.4389 9.47727C59.8821 9.47727 62.0071 10.0455 63.8139 11.1818C65.6321 12.3068 67.0412 13.8864 68.0412 15.9205C69.0526 17.9432 69.5582 20.3068 69.5582 23.0114C69.5582 25.6932 69.0526 28.0511 68.0412 30.0852C67.0412 32.108 65.6321 33.6875 63.8139 34.8239C62.0071 35.9602 59.8821 36.5284 57.4389 36.5284ZM57.4389 32.1648C59.0866 32.1648 60.4332 31.75 61.4787 30.9205C62.5355 30.0795 63.3139 28.9659 63.8139 27.5795C64.3139 26.1932 64.5639 24.6705 64.5639 23.0114C64.5639 21.3409 64.3139 19.8125 63.8139 18.4261C63.3139 17.0284 62.5355 15.9091 61.4787 15.0682C60.4332 14.2273 59.0866 13.8068 57.4389 13.8068C55.8026 13.8068 54.456 14.2273 53.3991 15.0682C52.3423 15.9091 51.5639 17.0284 51.0639 18.4261C50.5639 19.8125 50.3139 21.3409 50.3139 23.0114C50.3139 24.6705 50.5639 26.1932 51.0639 27.5795C51.5639 28.9659 52.3423 30.0795 53.3991 30.9205C54.456 31.75 55.8026 32.1648 57.4389 32.1648ZM73.5043 36L73.4872 31.5852H74.4247C75.152 31.5852 75.7599 31.4318 76.2486 31.125C76.7486 30.8068 77.1577 30.2727 77.4759 29.5227C77.794 28.7727 78.0384 27.7386 78.2088 26.4205C78.3793 25.0909 78.5043 23.4205 78.5838 21.4091L79.044 9.81818H97.3168V36H92.3224V14.2159H83.7656L83.3565 23.1136C83.2543 25.2727 83.0327 27.1591 82.6918 28.7727C82.3622 30.3864 81.8793 31.733 81.2429 32.8125C80.6065 33.8807 79.7884 34.6818 78.7884 35.2159C77.7884 35.7386 76.5724 36 75.1406 36H73.5043ZM107.949 18.8182H115.551C118.756 18.8182 121.222 19.6136 122.949 21.2045C124.676 22.7955 125.54 24.8466 125.54 27.358C125.54 28.9943 125.153 30.4659 124.381 31.7727C123.608 33.0795 122.477 34.1136 120.989 34.875C119.5 35.625 117.688 36 115.551 36H104.114V9.81818H109.108V31.6023H115.551C117.017 31.6023 118.222 31.2216 119.165 30.4602C120.108 29.6875 120.58 28.7045 120.58 27.5114C120.58 26.25 120.108 25.2216 119.165 24.4261C118.222 23.6193 117.017 23.2159 115.551 23.2159H107.949V18.8182ZM137.885 31.2273L137.629 33.0852C137.459 34.4489 137.169 35.8693 136.76 37.3466C136.362 38.8352 135.947 40.2159 135.516 41.4886C135.095 42.7614 134.749 43.7727 134.476 44.5227H130.862C131.01 43.8182 131.214 42.8636 131.476 41.6591C131.737 40.4659 131.993 39.1307 132.243 37.6534C132.493 36.1761 132.68 34.6705 132.805 33.1364L132.976 31.2273H137.885ZM157.155 36V32.1818L168.967 19.9432C170.229 18.6136 171.268 17.4489 172.087 16.4489C172.916 15.4375 173.536 14.4773 173.945 13.5682C174.354 12.6591 174.558 11.6932 174.558 10.6705C174.558 9.51136 174.286 8.51136 173.74 7.67045C173.195 6.81818 172.45 6.16477 171.507 5.71023C170.564 5.24432 169.501 5.01136 168.32 5.01136C167.07 5.01136 165.979 5.26704 165.047 5.77841C164.115 6.28977 163.399 7.01136 162.899 7.94318C162.399 8.875 162.149 9.96591 162.149 11.2159H157.121C157.121 9.09091 157.609 7.23295 158.587 5.64205C159.564 4.05114 160.905 2.81818 162.609 1.94318C164.314 1.05682 166.251 0.613635 168.422 0.613635C170.615 0.613635 172.547 1.05114 174.217 1.92614C175.899 2.78977 177.212 3.97159 178.155 5.47159C179.098 6.96023 179.57 8.64205 179.57 10.517C179.57 11.8125 179.325 13.0795 178.837 14.3182C178.359 15.5568 177.524 16.9375 176.331 18.4602C175.138 19.9716 173.479 21.8068 171.354 23.9659L164.416 31.2273V31.483H180.132V36H157.155ZM198.746 36.5795C196.053 36.5682 193.751 35.858 191.842 34.4489C189.933 33.0398 188.473 30.9886 187.462 28.2955C186.45 25.6023 185.945 22.358 185.945 18.5625C185.945 14.7784 186.45 11.5455 187.462 8.86364C188.484 6.18182 189.95 4.13636 191.859 2.72727C193.78 1.31818 196.075 0.613635 198.746 0.613635C201.416 0.613635 203.706 1.32386 205.615 2.74432C207.524 4.15341 208.984 6.19886 209.996 8.88068C211.018 11.5511 211.53 14.7784 211.53 18.5625C211.53 22.3693 211.024 25.6193 210.013 28.3125C209.001 30.9943 207.541 33.0455 205.632 34.4659C203.723 35.875 201.428 36.5795 198.746 36.5795ZM198.746 32.0284C201.109 32.0284 202.956 30.875 204.286 28.5682C205.626 26.2614 206.297 22.9261 206.297 18.5625C206.297 15.6648 205.99 13.2159 205.376 11.2159C204.774 9.20454 203.905 7.68182 202.768 6.64773C201.643 5.60227 200.303 5.07954 198.746 5.07954C196.393 5.07954 194.547 6.23863 193.206 8.55682C191.865 10.875 191.189 14.2102 191.178 18.5625C191.178 21.4716 191.479 23.9318 192.081 25.9432C192.695 27.9432 193.564 29.4602 194.689 30.4943C195.814 31.517 197.166 32.0284 198.746 32.0284ZM217.577 36V32.1818L229.389 19.9432C230.651 18.6136 231.69 17.4489 232.509 16.4489C233.338 15.4375 233.957 14.4773 234.366 13.5682C234.776 12.6591 234.98 11.6932 234.98 10.6705C234.98 9.51136 234.707 8.51136 234.162 7.67045C233.616 6.81818 232.872 6.16477 231.929 5.71023C230.986 5.24432 229.923 5.01136 228.741 5.01136C227.491 5.01136 226.401 5.26704 225.469 5.77841C224.537 6.28977 223.821 7.01136 223.321 7.94318C222.821 8.875 222.571 9.96591 222.571 11.2159H217.543C217.543 9.09091 218.031 7.23295 219.009 5.64205C219.986 4.05114 221.327 2.81818 223.031 1.94318C224.736 1.05682 226.673 0.613635 228.844 0.613635C231.037 0.613635 232.969 1.05114 234.639 1.92614C236.321 2.78977 237.634 3.97159 238.577 5.47159C239.52 6.96023 239.991 8.64205 239.991 10.517C239.991 11.8125 239.747 13.0795 239.259 14.3182C238.781 15.5568 237.946 16.9375 236.753 18.4602C235.56 19.9716 233.901 21.8068 231.776 23.9659L224.838 31.2273V31.483H240.554V36H217.577ZM247.014 36V32.1818L258.827 19.9432C260.088 18.6136 261.128 17.4489 261.946 16.4489C262.776 15.4375 263.395 14.4773 263.804 13.5682C264.213 12.6591 264.418 11.6932 264.418 10.6705C264.418 9.51136 264.145 8.51136 263.599 7.67045C263.054 6.81818 262.31 6.16477 261.366 5.71023C260.423 5.24432 259.361 5.01136 258.179 5.01136C256.929 5.01136 255.838 5.26704 254.906 5.77841C253.974 6.28977 253.259 7.01136 252.759 7.94318C252.259 8.875 252.009 9.96591 252.009 11.2159H246.98C246.98 9.09091 247.469 7.23295 248.446 5.64205C249.423 4.05114 250.764 2.81818 252.469 1.94318C254.173 1.05682 256.111 0.613635 258.281 0.613635C260.474 0.613635 262.406 1.05114 264.077 1.92614C265.759 2.78977 267.071 3.97159 268.014 5.47159C268.957 6.96023 269.429 8.64205 269.429 10.517C269.429 11.8125 269.185 13.0795 268.696 14.3182C268.219 15.5568 267.384 16.9375 266.19 18.4602C264.997 19.9716 263.338 21.8068 261.213 23.9659L254.276 31.2273V31.483H269.991V36H247.014Z" fill="#0B061B"/>
</svg>
